# xmcd
#
# Track frame offsets: 
#        150
#        15230
#        31857
#        48952
#        64337
#        80752
#        97285
#        116710
#        132255
#        153157
#        171710
#
# Disc length: 2559 seconds
#
# Revision: 0
# Processed by: cddbd v1.5.2PL0 Copyright (c) Steve Scherf et al.
# Submitted via: ExactAudioCopy v0.99pb5
#
DISCID=9209fd0b
DTITLE=Hello Dave - Perfect Day
DYEAR=2004
DGENRE=Rock and Roll
TTITLE0=Golden
TTITLE1=Sweetness
TTITLE2=Broken
TTITLE3=Perfect Day
TTITLE4=Medicine Boy
TTITLE5=Saturnalia
TTITLE6=Colorado
TTITLE7=Michigan
TTITLE8=Melissa
TTITLE9=Come Right Away
TTITLE10=Biminy
EXTD=
EXTT0=
EXTT1=
EXTT2=
EXTT3=
EXTT4=
EXTT5=
EXTT6=
EXTT7=
EXTT8=
EXTT9=
EXTT10=
PLAYORDER=
